<svg xmlns="http://www.w3.org/2000/svg" viewBox="0 0 512 512" fill="currentColor">
  <path d="M111.8 62.2C170.2 105.9 233 194.7 256 242.4c23-47.6 85.8-136.4 144.2-180.2c42.1-31.6 110.3-56 110.3 21.8c0 15.5-8.9 130.5-14.1 149.2C478.2 298 412 314.6 353.1 304.5c102.9 17.5 129.1 75.5 72.5 133.5c-107.4 110.2-154.3-27.6-166.3-62.9l0 0c-1.9-5.8-11.7-6.7-13.7 0l0 0c-12 35.3-59 173.2-166.3 62.9c-56.5-58-30.4-116 72.5-133.5C27.9 314.6-38.3 298 15.6 233.2c-5.2-18.7-14.1-133.7-14.1-149.2C1.5 6.2 69.7 30.6 111.8 62.2z"/>
</svg>